<svg width="148" height="67" viewBox="0 0 148 67" fill="none" xmlns="http://www.w3.org/2000/svg">
<mask id="mask0" mask-type="alpha" maskUnits="userSpaceOnUse" x="0" y="0" width="76" height="67">
<path fill-rule="evenodd" clip-rule="evenodd" d="M75.3669 67H0V4.57764e-05H75.3669V67Z" fill="white"/>
</mask>
<g mask="url(#mask0)">
<path fill-rule="evenodd" clip-rule="evenodd" d="M67.6576 32.9863C66.0057 35.7508 63.4593 37.0603 59.9486 37.0603C53.8231 37.0603 50.2441 32.5497 50.2441 26.5843C50.2441 20.6917 54.1675 16.1812 60.0178 16.1812C62.7018 16.1812 65.3865 17.0542 67.3138 19.8913C67.7953 20.6187 67.589 21.2738 66.9692 21.8558L65.3175 23.0196C64.6291 23.6017 64.1474 23.4562 63.5278 22.8013C62.771 22.0737 61.9449 21.7102 60.5684 21.7102C57.6777 21.7102 56.3701 23.8198 56.3701 26.5843C56.3701 29.2758 57.7462 31.5312 60.6369 31.5312C62.0827 31.5312 63.0462 31.0217 63.8031 30.1488C64.3537 29.5669 64.9735 29.4212 65.5927 29.9307L67.2446 31.1673C67.9328 31.6769 68.1397 32.3314 67.6576 32.9863ZM39.9195 36.9874C36.4094 36.9874 34.1383 36.2599 32.0734 34.7323C31.4537 34.2229 31.3851 33.4227 31.798 32.7678L32.7618 31.2403C33.2432 30.5128 33.7939 30.3672 34.5513 30.8037C35.8588 31.6037 37.3044 31.9678 39.2312 31.9678C40.7454 31.9678 41.7781 31.6769 41.7781 30.6582C41.7781 29.6397 41.0898 29.3488 38.681 28.9848C34.0006 28.3303 32.0734 26.3658 32.0734 22.8013C32.0734 18.8002 35.4458 16.3993 39.9195 16.3993C42.6041 16.3993 44.5999 17.1268 46.3895 18.5093C47.0777 19.0913 47.1468 19.8187 46.6648 20.5462L45.7701 21.8557C45.2882 22.5832 44.7376 22.6558 43.9805 22.2922C42.7417 21.5647 41.5714 21.3462 40.2639 21.3462C38.7495 21.3462 37.9236 21.7102 37.9236 22.5832C37.8551 23.5288 38.612 23.7473 41.0898 24.1837C45.5635 25.0567 47.6284 26.6567 47.6284 30.8037C47.6284 34.4414 44.6689 36.9874 39.9195 36.9874ZM28.6333 35.1688C28.6333 36.0418 28.0827 36.6238 27.2567 36.6238H23.7463C22.9202 36.6238 22.4386 36.0418 22.4386 35.1688V25.2747C22.4386 22.8743 21.406 21.7102 19.5478 21.7102C17.139 21.7102 15.5556 23.4562 15.5556 27.3843V35.1688C15.5556 36.0418 15.0742 36.6238 14.2481 36.6238H10.6692C9.84308 36.6238 9.36113 36.0418 9.36113 35.1688V18.0727C9.36113 17.1268 9.84308 16.6178 10.6692 16.6178H13.2847C14.1105 16.6178 14.6612 16.9813 14.7989 17.7817C14.9364 18.2183 15.0052 18.7272 15.0742 19.1638C16.5194 17.3453 18.5842 16.1812 21.1997 16.1812C26.0178 16.1812 28.6333 19.3823 28.6333 25.4927V35.1688ZM71.2372 0.0306998L3.2348 9.12421C1.3766 9.41525 -6.10352e-05 11.0157 -6.10352e-05 12.9802V39.6793C-6.10352e-05 41.3523 1.0322 42.8803 2.54653 43.3894L70.5489 66.8145C72.8891 67.6149 75.3669 65.7234 75.3669 63.1045V3.88669C75.3669 1.55876 73.4398 -0.260345 71.2372 0.0306998Z" fill="url(#paint0_linear)"/>
</g>
<path fill-rule="evenodd" clip-rule="evenodd" d="M90.1886 37.7779C91.6349 37.7779 92.8628 37.4303 93.7906 36.8799V32.5633C93.163 32.882 92.5081 33.0848 91.8259 33.0848C90.8708 33.0848 90.4069 32.6213 90.4069 31.5204V26.219H93.8452V21.7866H90.4069V17.8177H85.2222V21.7866H83.4758V26.219H85.2222V32.5923C85.2222 36.3294 87.0778 37.7779 90.1886 37.7779ZM103.614 37.8358C98.8936 37.8358 95.4827 34.1567 95.4827 29.6953V29.6374C95.4827 25.176 98.9209 21.4389 103.669 21.4389C108.39 21.4389 111.801 25.1181 111.801 29.5794V29.6374C111.801 34.0987 108.363 37.8358 103.614 37.8358ZM103.668 33.1717C105.551 33.1717 106.752 31.5784 106.752 29.6954V29.6374C106.752 27.7254 105.442 26.1031 103.613 26.1031C101.731 26.1031 100.53 27.6964 100.53 29.5795V29.6374C100.53 31.5494 101.84 33.1717 103.668 33.1717ZM119.851 37.7779C121.298 37.7779 122.525 37.4303 123.453 36.8799V32.5633C122.826 32.882 122.171 33.0848 121.489 33.0848C120.533 33.0848 120.07 32.6213 120.07 31.5204V26.219H123.508V21.7866H120.07V17.8177H114.885V21.7866H113.138V26.219H114.885V32.5923C114.885 36.3294 116.74 37.7779 119.851 37.7779ZM129.974 37.8069C127.164 37.8069 125.008 36.0977 125.008 32.9689V32.911C125.008 29.6664 127.327 27.9861 130.793 27.9861C132.157 27.9861 133.494 28.2758 134.34 28.5945V28.3338C134.34 26.7114 133.385 25.7844 131.393 25.7844C129.838 25.7844 128.637 26.1031 127.327 26.6535L126.263 22.7715C127.928 22.0473 129.701 21.5548 132.239 21.5548C134.886 21.5548 136.687 22.2211 137.86 23.4668C138.979 24.6256 139.443 26.2479 139.443 28.4496V37.745H134.313V35.837C133.303 37.0247 131.912 37.8069 129.974 37.8069ZM131.829 34.3594C133.33 34.3594 134.394 33.3455 134.394 31.7811V31.0569C133.875 30.8251 133.139 30.6513 132.375 30.6513C130.874 30.6513 130.001 31.4335 130.001 32.5923V32.6502C130.001 33.7221 130.765 34.3594 131.829 34.3594ZM142.199 37.745H147.384V16.8827H142.199V37.745Z" fill="#FF6915"/>
<defs>
<linearGradient id="paint0_linear" x1="-1.55737" y1="67.6922" x2="75.3669" y2="67.6922" gradientUnits="userSpaceOnUse">
<stop stop-color="#FF4A5D"/>
<stop offset="1" stop-color="#FF6915"/>
</linearGradient>
</defs>
</svg>
